/* XPM */
/* C:\users\crossover\Application Data\Microsoft\Installer\{90120000-0030-0000-0000-0000000FF1CE}\xlicons.exe */
static char *icon[] = {
"48 48 201 2",
"01 c #003300",
"02 c #003A00",
"03 c #064000",
"04 c #0F4900",
"05 c #174F00",
"06 c #1F5604",
"07 c #1E540B",
"08 c #275E07",
"09 c #245B09",
"0A c #2B5F14",
"0B c #295C1A",
"0C c #2E640B",
"0D c #2F7105",
"0F c #376C10",
"10 c #356B1E",
"11 c #327505",
"12 c #357A06",
"13 c #397E07",
"14 c #3A7F09",
"15 c #3F7414",
"16 c #3B7915",
"17 c #356E26",
"18 c #3F7422",
"1A c #477B17",
"1B c #427A1C",
"1C c #436C3E",
"1D c #3A8009",
"1F c #4F831B",
"20 c #4D842A",
"21 c #4B843C",
"22 c #538325",
"23 c #578A20",
"25 c #508C33",
"26 c #548933",
"28 c #578A3A",
"2A c #598C3B",
"2B c #5F9124",
"2C c #4FAF22",
"2D c #52AD28",
"2E c #58AF31",
"2F c #59B031",
"30 c #669B3F",
"31 c #699E3F",
"32 c #4D8D46",
"33 c #4E8E4A",
"34 c #508F4A",
"35 c #5E8C43",
"36 c #53924C",
"38 c #59954E",
"39 c #5B984E",
"3A c #569350",
"3B c #599551",
"3C c #5D9852",
"3D c #619145",
"3E c #64924B",
"3F c #679456",
"41 c #669E59",
"42 c #6A9452",
"45 c #70995A",
"46 c #73936C",
"47 c #759A62",
"48 c #7B9E6A",
"49 c #67A055",
"4A c #6BA155",
"4B c #6CA25B",
"4C c #6FBE4B",
"4D c #7CA54C",
"4E c #70A557",
"4F c #71A55A",
"50 c #74A85B",
"52 c #7DAB5E",
"53 c #78BE58",
"54 c #69A060",
"55 c #74A664",
"56 c #71A56D",
"57 c #76A960",
"58 c #7EA06B",
"59 c #7CAC61",
"5A c #7BAA6F",
"5B c #77A971",
"5C c #7AAA74",
"5D c #7AC359",
"5E c #80AF60",
"5F c #82A273",
"60 c #88A57A",
"61 c #88A974",
"62 c #89A87B",
"63 c #83B163",
"64 c #84B16C",
"65 c #89B565",
"67 c #8DB866",
"68 c #8CB869",
"69 c #83B075",
"6A c #81B07C",
"6C c #84B07E",
"6E c #8BB673",
"70 c #88B47C",
"71 c #93BB70",
"72 c #93B97C",
"74 c #84C368",
"75 c #85C866",
"76 c #8BC86E",
"77 c #8EC873",
"78 c #93CA79",
"79 c #A0C47E",
"7B c #86B383",
"7D c #90AC83",
"7E c #95AE8A",
"80 c #94B482",
"81 c #96B08B",
"82 c #91B981",
"83 c #94BB8A",
"84 c #9ABC84",
"86 c #9BB392",
"87 c #9DB099",
"88 c #98BC91",
"89 c #A3B99A",
"8A c #A4B6A1",
"8B c #A5B8A1",
"8C c #A9BCA3",
"8D c #AEBEAB",
"8E c #9CC181",
"8F c #9FD088",
"90 c #A2C58D",
"91 c #A9C383",
"95 c #A0C39C",
"96 c #A3C498",
"9A c #ACCA93",
"9B c #A9C99B",
"9C c #B3CB91",
"9D c #B2CD9B",
"9E c #B5D099",
"9F c #AFC0AB",
"A0 c #A9C9A2",
"A1 c #A9C8A5",
"A3 c #AFCBA8",
"A4 c #B2C3AB",
"A5 c #B1CBA3",
"A6 c #B3CEAA",
"A7 c #B5C4B3",
"A8 c #B8C6B3",
"A9 c #B9C9B4",
"AA c #BECABB",
"AB c #B5D4A6",
"AC c #B6D0AC",
"AD c #B9D2A4",
"AF c #BED5AA",
"B1 c #BFD8B6",
"B2 c #C0CEBB",
"B3 c #C2D9AA",
"B4 c #C3D3B9",
"B5 c #C0D8B4",
"B9 c #CBDFBA",
"BA c #C9DDBE",
"BB c #CCE0BB",
"BC c #D0E2BE",
"BD c #C7C9C1",
"BF c #CBCEC5",
"C0 c #C6D1C5",
"C1 c #C8D4C5",
"C2 c #CADDC3",
"C3 c #CED8CD",
"C4 c #D0D3C8",
"C7 c #D0DEC3",
"C8 c #D0D9CD",
"C9 c #D4D8CD",
"CB c #D5D6D3",
"CE c #D8DFD6",
"CF c #CEE0C3",
"D0 c #CFE0C9",
"D2 c #D3E4CA",
"D3 c #D3EBC6",
"D4 c #D8E6C4",
"D5 c #D8E6CE",
"D6 c #DBE9CD",
"D7 c #D5E5D2",
"DB c #D8E6D4",
"DC c #DFE4D3",
"DE c #DAE1D9",
"E0 c #DAE8D4",
"E1 c #DEE9D0",
"E2 c #DEEAD5",
"E3 c #DFE8DD",
"E4 c #E1E5D5",
"E5 c #E0E5DE",
"E6 c #E3EDD4",
"E9 c #E8EDDB",
"EB c #E6F0DF",
"ED c #E9F1DD",
"EE c #E3E5E2",
"EF c #E5EDE3",
"F0 c #E8EBE5",
"F3 c #EFF5E0",
"F6 c #F0F6E4",
"F8 c #F2F8E6",
"F9 c #F4F8EB",
"FA c #F3F5F1",
"FB c #F5F8F4",
"FC c #F9FBF3",
"FF c #FFFFFF",
"   c None",
"                    8F742E2C2C2C2C2C2C2C2C2C2C2C2C2C2C2C2C2C2C2C2C2C2C2C2C2C2C2C                ",
"                8F2D76D0FBFFFFFFFFFFFFFFFFFFFFFFFFFFFFFFFFFFFFFFFFFFFFFFFFFFFF2C                ",
"            8F2D78FAFFFAF6EFEEDEEBE5E5E5EEE5E5E5E5E5E5EEE5E5E5E5EEE5E5E5EEE5FF2C                ",
"          774CE3FFF6DEDEDEDEDEDEDEDEDEDEDBDEDEDCCECECECEDECECEDECEDECEDECEDEFF2C                ",
"        765DFAFAC8C8C8C8C8C8C8C8C8C8C8C8C8C8C8C8C9C9C2CBC2CBC3C3C3C3C3C3C3C3FF2C                ",
"      7753FFF6C0C1C1C1C1C1C1C1C1C1C1C1C1C1C1C1C1C1C1C1C1C1C1C1C0C0C0C0C0C0C0FF2C                ",
"    774CFAEFBDAAB2B2B2B2B4B2B4B2B2B4BDB4B2B2B2B2B2B2B2B2AAAAAAAAAAAAAAAAAAAAFF2C                ",
"    2DDBEBA9A9AAA9A9A9A9AAA9A9A9A9A9A9A9AAA9A9AAA9A9A9A8A8A8A7AAA8A7A7A7A7A7FF2C                ",
"  8F77FFA8A4A4A6A4A4A4A4A4A4A4A4A4A4A4A4A4A4A4A4A4A89FA89FA88CA78C8D8C8D8C8DFF2C                ",
"  2DEBC88C8C8C8CC8FFFFFFEBF0F0E3C9D2C9A9B4A98C8C8C8C8C8C8C8C8C8C8C8B8B8B8B8AFF2C                ",
"8F75FA8C89898989EBFFFCFFFFFFFFFFFFFFFFFFFFFFFFFFFFF6EBEFE3C2C8C2A8A8A88A8687FF2C                ",
"74ABC28686868686FCFFFFFFFFFCFFFFFCFFFFFCFFFFFCFFFFFFFFFFFFFFFFFFFFFFFFFFFFFFFFD3FFFF            ",
"2FDCA9817E818189FFFCF39C9AB3C7C7FFFFFCFFFFFFFFFFFFFFFFFBFFFBFFFFFFFFFFFFFFFFFFFFFFFFFFFFFFCB    ",
"2CFF8C7D7D7D7DA4FCFFFC912B231F1A15A5FFFFFCFFF6DBDBDBDCE0DBD7D7FBFFFFFFFBFFFBFFFBFFFBFFFFFFCB    ",
"2CFF6060626262B4FFFCFFF84D231F1A1518E5FCFFD2594F4F4141414154D0FFDB3C3C6A6A7B95A1A1C3FBFFFFCB    ",
"2CFF5F5F5F5F61E4FCFCFFFCE2231F1A150F26FFA550554B4B4B41415BE3FFFCC23C413C3B3B3B3A3333FFFFFFCB    ",
"2CFF4848585858FBFCFFFCFCFC9C1F1A150F0C3557554F4B4B4B4183F6FFFCFFA33C3C3C3C3B3B363A3AFBFFFFCB    ",
"2CFF4747474761FCFCFCFCFFFCFF451A150F0C083E4F4F4B4B4BA3FCFFFCFFFC963C3C3B3B3B3A363A56FBFFFCCB    ",
"2CFF4245454580FCFCFCFCFCFCFCF622150F0C090C4B4F4B55C2FCFFFCFFFCFC70413C3B393A3A36365CFFFCFFCB    ",
"2CFF3F3F4245A5FCFCFCFCFCFCFCF359150F0C0806104F6CE6FFFCFCFCFCFCFF6C39393C3A3A3834365CFBFFFCCB    ",
"2CFF3E3E3E3EBAFCFCFCFCFCFCD5685E2A0F0C0809053FF9FCFCFCFCFCFFFCFCFFFCD2D0C2A1A07B5BB1FCFFCBCB    ",
"2CFF3535353DE9F9FCFCFCFCAD636463591B0C08050507DCFCFCFCFCFCFCFCFCFCFBFBFFFCFCFFFCFCFFFCFCCBCB    ",
"2CFF282A2A3EFCFCFCF9F38E636363595E4A0C080905040BD2E2FAFCFCFCFCEBA5A5C2D0E0FCFCFBFBFCFCFCCB      ",
"2CFF26252552FCF9F9D471656763645E59592A080505040317494949B1FCFCD2393C393B3B3A36565CDBFCFCCB      ",
"2CFF20201B72F9FCBC7167676363635E595750180605040302214988FCFCF9AC49393B3B3A3A343634D0FCFCCB      ",
"2CFF161111ADFBF9F9FCF8D6BBAF9A8E6E59504B080504030203A6FCF9FCFCA53939393A3B34363433DBFCFCCB      ",
"2CFF0D1111E6F8F9F9F9F9F9FCF9FCFCF9FCE6D5820A040302011CFCF9FCF98839393B393438343434FCF9FCCB      ",
"2CFF111212F9F9F9F9F9F9F9F9F9F9F9F9F9F9F9F9F9F9E2A68646EBF9FCF97039393B383834343434F9FCFCCB      ",
"2CFF111130FAF9EDB3C7D6F8F8F9F9F9F9F9F9F9F9F9F9F9F9F9F9F9FCF9FC8869393B3A393434343BFCF9FCCB      ",
"2CFF111368F8F9B96765656563798E9DD4F9F9EBF9F9F9F9F9F9F9F9F9F9F9F9F9F9F6CFC7A0A06C88FCF9F9CB      ",
"2CFF13139AF8F99E67656565635E635EB9F9EB5050648290A5B5C7EBF8F9F9F9F9F9F9F9F9F9F9F9F9F9F9FCCB      ",
"2CFF1314BCF8F87967656563655E5E5EC7F9D450504F4F4B4A4A4949E1F9D5709BA5CFD6F8F9F9F9F9F9F9F9CB      ",
"2CFF1314F8F8F37165656565635E6359EDF9AF50504E4F4F4A4A4949F8F9C7493838383436345A5BC2F9F9F9CB      ",
"2CFF1331F3F8E165656565635E5E5E63F8F99B524E4F4A4A4A49494BF9F89B39383939343634343296F8F9F9CB      ",
"2CFF1468F8F8E67965656363635E5E8EF8F88250504F4E4A4A4A4970F9F99B393839343634343432A6F9F9F9CB      ",
"2CFF1D9AF3F8F3F8F8EBD4B3AD90849DF3F864504F4E4A4A4A4A4982F3F86C393838343834343432BAF8F8F8CB      ",
"2CFF1DB3F3F3F8F3F8F3F8F8F8F8F8F3F8F8BAA59082574A4A49499BF8F869383838343438323432C2F3F8CB        ",
"2CFF1DF3F3F3F3F3F3F3F3F3F3F3F3F3F8F3F8F6F8F6F8F3C7CF9BCFF3F841393838383832323232EBF8F8CB        ",
"2CFFFFFFCBCBCBCBF3F3F3F3F3F3F3F3F3F3F3F3F3F3F3F3F8F3F8F6F8F6F8E2C2A5966C5B343232F8F3F8CB        ",
"2C2C2C2C2C2C2C2CCBCBCBCBCBCBCBCBF3F3F3F3F3F3F3F3F3F3F3F3F3F3F3F3F8F3F8F6F8F6EBBAF3F8F8CB        ",
"                                CBCBCBCBCBCBCBCBF3F3F3F3F3F3F3F3F3F3F3F3F3F3F3F3F3F8F3CB        ",
"                                                CBCBCBCBCBCBCBCBF3F3F3F3F3F3F3F3F3F3F3CB        ",
"                                                              BDCBCBCBCBCBCBCBCBF3F3F3CB        ",
"                                                                            BFC4CBCBCBCB        ",
"                                                                                                ",
"                                                                                                ",
"                                                                                                ",
"                                                                                                "};
