/* XPM */
/* C:\users\crossover\Application Data\Microsoft\Installer\{90120000-0030-0000-0000-0000000FF1CE}\wordicon.exe */
static char *icon[] = {
"48 48 102 2",
"01 c #002088",
"02 c #00278C",
"03 c #002A8D",
"04 c #02308F",
"05 c #073493",
"06 c #073C98",
"07 c #0B3695",
"08 c #0F3B95",
"09 c #153F99",
"0A c #0E409B",
"0B c #14469E",
"0C c #1B449C",
"0D c #1749A0",
"0E c #1E4EA4",
"0F c #20479F",
"10 c #224B9F",
"11 c #274EA3",
"12 c #2050A5",
"13 c #2554A9",
"15 c #2C54A2",
"16 c #2956AA",
"17 c #2D59A5",
"18 c #2F5CAF",
"19 c #3055A5",
"1A c #3357A8",
"1B c #315CA6",
"1C c #365AA9",
"1D c #345EA9",
"1E c #3A5CAB",
"1F c #3F60AE",
"20 c #3D66AD",
"21 c #3560B2",
"22 c #3D66B6",
"23 c #3E67B8",
"24 c #4465AE",
"25 c #436AAE",
"26 c #496FAF",
"27 c #4666B0",
"28 c #456BB0",
"29 c #4A6EB0",
"2A c #4E6CB4",
"2B c #4770BC",
"2C c #4C71B1",
"2D c #4A71BE",
"2E c #5075B3",
"2F c #5571B8",
"30 c #5774B8",
"31 c #5579B5",
"33 c #597AB6",
"34 c #5E7BBA",
"35 c #4D75C0",
"36 c #5176C1",
"37 c #577CC6",
"38 c #5A7FC8",
"39 c #5F80B9",
"3A c #6384BC",
"3C c #6984BE",
"3D c #6E8CBF",
"3E c #6B85C0",
"3F c #708CC0",
"41 c #7593CC",
"42 c #7991C5",
"43 c #7E98CA",
"44 c #7491D1",
"45 c #8096CA",
"46 c #819AC8",
"47 c #819ECA",
"48 c #8DA1CE",
"49 c #8CA4CC",
"4B c #89A3D9",
"4C c #93A9D0",
"4D c #9CAFD5",
"4E c #9BB1DB",
"4F c #A0B0D6",
"50 c #A2B5D5",
"51 c #A5B9D8",
"52 c #A8B6DA",
"54 c #AABCD9",
"55 c #B1BFDF",
"56 c #B0C1DB",
"57 c #B6C8DF",
"58 c #B4C5E5",
"5A c #BFCCE4",
"5C c #C9CAD1",
"5E c #C0CDE3",
"5F c #C5D2E5",
"60 c #C5D0E8",
"61 c #CAD5E9",
"62 c #D3DCE0",
"63 c #D4DDE0",
"64 c #D0DAEA",
"65 c #D5DFF1",
"66 c #D6E3EE",
"68 c #DDE6EA",
"69 c #DAE5F0",
"6D c #E4EEF4",
"6E c #E5F0F4",
"6F c #E9F1F5",
"70 c #EEF4F8",
"71 c #F2F8F9",
"73 c #F8FAFB",
"   c None",
"                      4C4C434646464646464646464646464646464646464646464646464646                ",
"                  54486170717371717171717171717171717171717171717171717171737346                ",
"              58486371736E635E5A5A5A5A5A5A5A5A5A5A5A5A5A5A5A5A5A5A5A5A5A5A5A7146                ",
"            48587171635156565856585555555555555555555555555555555555565658557143                ",
"          4665736654545454545156515154545454545454545454545454545454565154547348                ",
"        4869715E51515151514F515A5A5A5A5151525051525050515051515151514D5151517346                ",
"      4C6471564F4F4D4D4F4D4F4F7173737373737373696D68695F5F5A5F4D4D4D4D4D4D4D7146                ",
"      54715A4C494C4C4C4C4C4C567373737373737373717371737170717070716F6F716F6E6E58                ",
"    4671624648494949494849485A7173737373737373717371717370717071706F716F716E6F6F6E6E6E6D6D6D    ",
"  516070484646464647464743475F73737373737373717371737371707170706F716F6F6F6F6F6F6E6E6D6E6D6D5C  ",
"  467156464646464646464646466D717373737373707371717371707170707071706F6F716E6F6E6E6E6D6D6D6D5C  ",
"4C58734242424242424242424242717373615252505A6F716D717171707171706F6F6F716E6F6F6D6E6E6D6D6D6D5C  ",
"4C695F3E3D3D3D3D3D3D3D3D3D427373733430302730736F241A3471682C2E3F466D5155565A6F6D6D6F6D6D6D6D5C  ",
"46714C3C3A3A3A3A3A3A3A3A3A487173735A302E486471421C1A347154110C0B0C6F24040303020101556D6D6D6D5C  ",
"4373463C3A39393C39343A393356737373542F2A52735A1E1E1C467071250C29696F050403030201015F6D6D6D6D5C  ",
"437333333133333133333433345F717373543029616D301E1E1A4871480F11666F6F5755463F3E1F156D6D6D6D6D5C  ",
"4373312C312C3131313131313168737373543030614C27271C1A4C61101056716F716E6F6F6F6F6E6E6D6D6D6D6D5C  ",
"43732C2C2C2C2C2C2E2E2E2E31737373735230294E2434481C1A4C341134706F6F6D5655566F6F6D6E6D6D6D6D6D5C  ",
"437325252626252C2C2C2E2E3A7373737345302A3027654D1C1A3411196D70707151050303030202316D6D6D6D5C    ",
"437325202525262628282C28467373737345302A2950734C1E1A19115A7071706F42050403020101156D6D6E6D5C    ",
"43731F202020262525262828517373737345302A3E71714D1C1A15467170706E6F6856503F3F1F15486E6D6D6D5C    ",
"43731C1F201D2020202525275F737373734230306F71734C1E1A276D70707071716F6F6F6F6F6E6E6E6E6D6D6D5C    ",
"43731C1C1C20201F202825246D717373733030547371733E1C1A64707070716E6F5556566F6F6F6E6E6D6D6D6D5C    ",
"43731B171C1C1C1F1F1C130E70737373736458737173713E1E4C71707070706F7109050303020711566E6D6D6D5C    ",
"43711717171C18130B0B0D30717373737373737373717371737170717070706F7107070303020202506E6D6D6D5C    ",
"437313170E0B0B0B0E0E1241737373716D70717371717171717170707170706F7154563F3F24150C5F6E6D6D6D5C    ",
"43730F060A0B0D0E1213134C737373734D3029343F424D4C585A6870706F716F6F6F716E6F6F6E6D6D6D6D6D6D5C    ",
"4373060A0B0E0E1316181861737373734630292A241E1E1C1915111015292942465156646E6E6E6D6D6D6D6D6D5C    ",
"43730B0A0E0E1318181C21707373737346453029271E1E1E191511110C0C0C0807050303030215316D6D6D6D6D5C    ",
"43730B0E0E13181821222D7373737373737373736561524C4234240C0C0C080807050403020201156D6D6D6D6D5C    ",
"43730E0E13182121222B4173737373737173737171717173717071706D5A514642241F03030202156D6D6D6D6D5C    ",
"43710E13161C21232B2D4E7373737354303E42484D555F697171707171706F6F716E6F6F6F5A515F6E6D6D6D6D5C    ",
"43731313182122232D3658737373735230292A27241F1E1C1927303E46505A646F6F6F6F6F6D6D6D6D6D6D6D6D5C    ",
"4373131621212B2B353769737373735230302929271F1E1C1A1511110C0C090807101F313F4854666D6D6D6D6D5C    ",
"4373161821222B353738737373737373737364614D483C30151511110C0C090807050303030202516D6D6D6D6D5C    ",
"43731618212B2B353744737373737373737373717371737173665A50463E290C07050503020202506E6D6D6D6D5C    ",
"4373181822232D37384B73737373737373737371717373717070717071706F716E5F56463F1915576D6D6D6D5C      ",
"43731821222B353738587373737373737373737373717173707171716F716F6F6F6F6F6F6E6E6D6D6D6D6D6D5C      ",
"437373737373737373737373737373737373737171717373716F716D716F6F716E6F6F6F6E6E6D6D6D6D6D6D5C      ",
"4343434343434343435C5C5C7373737373737371737373716F717171716F716F716E6F6F6E6E6D6D6D6D6D6D5C      ",
"                        5C5C5C5C5C5C73717171717170716D716F706F6F6F6F6F6F6E6E6D6D6D6D6D6D5C      ",
"                                    5C5C5C5C5C5C7171717070716F716F6F6F6F6E6E6D6D6D6D6D6D5C      ",
"                                                5C5C5C5C5C6F6F6F6F6F6F6F6E6E6D6D6D6D6D6D5C      ",
"                                                          5C5C5C5C5C5C6F6E6D6E6D6D6D6D6D5C      ",
"                                                                      5C5C5C5C5C5C6D6D6D5C      ",
"                                                                                  5C5C5C5C      ",
"                                                                                                ",
"                                                                                                "};
